<svg id="Layer_1" data-name="Layer 1" xmlns="http://www.w3.org/2000/svg" viewBox="0 0 16 15.61"><path d="M6.52,6.42C6.52,5.7,6,5.7,6,5.7H4V7.24H5.9C6.23,7.24,6.52,7.14,6.52,6.42Z"/><path d="M6,8.31H4v1.84H5.94c.28,0,.82-.1.82-.9S6,8.31,6,8.31Z"/><path d="M11.17,7.24A1.23,1.23,0,0,0,10,8.31h2.26A1,1,0,0,0,11.17,7.24Z"/><path d="M8,.39A7.61,7.61,0,1,0,15.61,8,7.61,7.61,0,0,0,8,.39ZM9.66,4.88H12.5v.85H9.66ZM8.22,9.34a2,2,0,0,1-2.19,2H2.44V4.48H6A1.76,1.76,0,0,1,8,6.31,1.2,1.2,0,0,1,6.93,7.63C8.32,7.63,8.22,9.34,8.22,9.34Zm3,1.09c1.15,0,1.11-.74,1.11-.74H13.5c0,2-2.36,1.83-2.36,1.83A2.45,2.45,0,0,1,8.49,8.88a2.6,2.6,0,0,1,2.65-2.65c2.79,0,2.4,3,2.4,3H10A1.12,1.12,0,0,0,11.18,10.43Z"/></svg>