<svg id="Capa_1" data-name="Capa 1" xmlns="http://www.w3.org/2000/svg" viewBox="0 0 512.75 512.75"><defs><style>.cls-1{fill:#17bfbf;stroke:#000;stroke-miterlimit:10;stroke-width:0.75px;}</style></defs><rect class="cls-1" x="0.38" y="0.38" width="512" height="512" rx="78.5"/><path d="M519,53H97A45.05,45.05,0,0,0,52,98V518a45.05,45.05,0,0,0,45,45H519a45.05,45.05,0,0,0,45-45V98A45.05,45.05,0,0,0,519,53ZM97,83H519a15,15,0,0,1,15,15v75H82V98A15,15,0,0,1,97,83ZM519,533H97a15,15,0,0,1-15-15V203H534V518A15,15,0,0,1,519,533Z" transform="translate(-51.63 -52.63)"/><path d="M358.91,249.21a15,15,0,0,0-19.7,7.88l-90,210a15,15,0,1,0,27.58,11.82l90-210a15,15,0,0,0-7.88-19.7Z" transform="translate(-51.63 -52.63)"/><path d="M229.71,298.63a15,15,0,0,0-21.08-2.34l-75,60a15,15,0,0,0,0,23.42l75,60a15,15,0,0,0,18.74-23.42L167,368l60.36-48.29a15,15,0,0,0,2.34-21.08Z" transform="translate(-51.63 -52.63)"/><path d="M482.37,356.29l-75-60a15,15,0,0,0-18.74,23.42L449,368l-60.36,48.29a15,15,0,0,0,18.74,23.42l75-60A15,15,0,0,0,482.37,356.29Z" transform="translate(-51.63 -52.63)"/><circle cx="76.38" cy="75.38" r="15"/><circle cx="136.38" cy="75.38" r="15"/><circle cx="196.38" cy="75.38" r="15"/><path d="M398,143h90a15,15,0,0,0,0-30H398a15,15,0,0,0,0,30Z" transform="translate(-51.63 -52.63)"/></svg>