<?xml version="1.0" encoding="utf-8"?>
<!-- Generator: Adobe Illustrator 24.2.3, SVG Export Plug-In . SVG Version: 6.00 Build 0)  -->
<svg version="1.1" id="Bold" xmlns="http://www.w3.org/2000/svg" xmlns:xlink="http://www.w3.org/1999/xlink" x="0px" y="0px"
	 viewBox="0 0 512 512" style="enable-background:new 0 0 512 512;" xml:space="preserve">
<style type="text/css">
	.st0{fill:none;}
</style>
<g>
	<g>
		<polygon class="st0" points="304.8,134.8 304.5,135.1 305.2,134.8 		"/>
	</g>
	<g>
		<path class="st0" d="M304.3,135.2l-4.4,4.3c49.2,14,73.1,36,73.1,36c-71.4-35.2-148.6-37.2-219.3-9.4c-11.1,4.7-17.5,7.9-17.5,7.9
			s23.8-23.4,76.3-36l-3.2-3.2c0,0-39.7-1.5-82.6,29.7c0,0-42.9,73.5-42.9,164.2c0,0,23.8,40.7,88.9,42.2c0,0,9.5-12.5,19.1-23.4
			c-36.6-10.9-50.9-32.8-50.9-32.8l12.2,6.2c35.8,14.5,73.7,32.8,141.1,21.9c14.2-3.2,28.5-6.2,42.8-12.5
			c9.3-4.7,20.7-9.4,33.2-17.2c0,0-14.3,21.9-52.4,32.8c7.9,10.9,18.9,23.4,18.9,23.4c65.2-1.4,90.5-42.1,92-40.4
			c0-90.5-43.1-164.2-43.1-164.2C347.2,136.5,311.1,135.2,304.3,135.2z M201.4,292.2c-16.6,0-30.2-14-30.2-31.2
			c0-17.3,13.5-31.3,30.2-31.3l0.1-0.1c16.6,0,30.1,14,30.1,31.2C231.6,278.1,218.1,292.2,201.4,292.2z M309.5,292.2
			c-16.6,0-30.2-14-30.2-31.2c0-17.3,13.6-31.3,30.2-31.3v-0.1c16.7,0,30.2,14,30.2,31.2C339.6,278.1,326.1,292.2,309.5,292.2z"/>
	</g>
	<g>
		<path d="M479,33H33v446h446V33z M304.8,134.8h0.5l-0.8,0.3L304.8,134.8z M336.9,369.2c0,0-11-12.5-18.9-23.4
			c38.1-10.9,52.4-32.8,52.4-32.8c-12.5,7.9-23.9,12.6-33.2,17.2c-14.2,6.3-28.5,9.4-42.8,12.5c-67.5,10.9-105.3-7.4-141.1-21.9
			l-12.2-6.2c0,0,14.2,21.9,50.9,32.8c-9.6,11-19.1,23.4-19.1,23.4c-65.2-1.5-88.9-42.2-88.9-42.2c0-90.7,42.9-164.2,42.9-164.2
			c42.9-31.2,82.6-29.7,82.6-29.7l3.2,3.2c-52.5,12.5-76.3,36-76.3,36s6.4-3.1,17.5-7.9c70.7-27.8,147.8-25.8,219.3,9.4
			c0,0-23.8-21.9-73.1-36l4.4-4.3c6.8,0,42.8,1.3,81.4,29.5c0,0,43.1,73.7,43.1,164.2C427.4,327.1,402.1,367.8,336.9,369.2z"/>
	</g>
	<g>
		<path d="M309.5,229.6L309.5,229.6c-16.6,0.1-30.1,14.1-30.2,31.4c0,17.2,13.5,31.2,30.2,31.2c16.6,0,30.2-14,30.2-31.3
			C339.6,243.6,326.2,229.6,309.5,229.6z"/>
	</g>
	<g>
		<path d="M201.5,229.6L201.5,229.6c-16.7,0.1-30.3,14.1-30.3,31.4c0,17.2,13.5,31.2,30.2,31.2c16.6,0,30.2-14,30.2-31.3
			C231.6,243.6,218.2,229.6,201.5,229.6z"/>
	</g>
</g>
</svg>
