<?xml version="1.0" encoding="utf-8"?>
<!-- Generator: Adobe Illustrator 24.2.3, SVG Export Plug-In . SVG Version: 6.00 Build 0)  -->
<svg version="1.1" id="Layer_1" xmlns="http://www.w3.org/2000/svg" xmlns:xlink="http://www.w3.org/1999/xlink" x="0px" y="0px"
	 viewBox="0 0 487.7 487.7" style="enable-background:new 0 0 487.7 487.7;" xml:space="preserve">
<style type="text/css">
	.st0{fill:#17BFBF;stroke:#000000;stroke-width:20;stroke-linecap:round;stroke-linejoin:round;}
	.st1{fill:none;}
	.st2{fill:#151616;stroke:#000000;stroke-width:2;stroke-miterlimit:10;}
</style>
<rect x="3.5" y="3.5" class="st0" width="480.7" height="480.7"/>
<circle class="st1" cx="243.8" cy="243.8" r="159.6"/>
<path class="st2" d="M248,405.6c-89.4,0-161.8-72.4-161.8-161.8S158.6,82,248,82s161.8,72.4,161.8,161.8c0,0,0,0,0,0l0,0
	C409.7,333.1,337.3,405.5,248,405.6z M248,86.3c-87,0-157.5,70.5-157.5,157.5S161,401.3,248,401.3s157.5-70.5,157.5-157.5v0
	C405.5,156.9,335,86.4,248,86.3L248,86.3z"/>
<circle class="st1" cx="303.5" cy="243.8" r="99.9"/>
<path class="st2" d="M303.5,345.9c-56.4,0-102.1-45.6-102.1-102c0-56.4,45.6-102.1,102-102.1c56.4,0,102.1,45.6,102.1,102l0,0
	C405.5,300.1,359.8,345.8,303.5,345.9z M303.5,146c-54,0-97.8,43.8-97.8,97.8s43.8,97.8,97.8,97.8s97.8-43.8,97.8-97.8l0,0l0,0
	C401.3,189.8,357.5,146,303.5,146z"/>
<circle class="st1" cx="263.6" cy="243.8" r="60"/>
<path class="st2" d="M265.3,305.9c-34.3,0-62.1-27.8-62.1-62.1s27.8-62.1,62.1-62.1s62.1,27.8,62.1,62.1S299.6,305.9,265.3,305.9
	L265.3,305.9z M265.3,185.9c-31.9,0-57.9,25.9-57.9,57.8s25.9,57.9,57.8,57.9s57.9-25.9,57.9-57.8l0,0
	C323,211.9,297.2,186,265.3,185.9z"/>
</svg>
