<?xml version="1.0" encoding="utf-8"?>
<!-- Generator: Adobe Illustrator 24.2.3, SVG Export Plug-In . SVG Version: 6.00 Build 0)  -->
<svg version="1.1" id="Capa_1" xmlns="http://www.w3.org/2000/svg" xmlns:xlink="http://www.w3.org/1999/xlink" x="0px" y="0px"
	 viewBox="0 0 480 480" style="enable-background:new 0 0 480 480;" xml:space="preserve">
<style type="text/css">
	.st0{fill:#17BFBF;}
</style>
<rect x="23" y="59.2" class="st0" width="434" height="361.7"/>
<g>
	<g>
		<path d="M384.7,59.2H23v361.7h434V59.2H384.7z M80.9,406.4H37.5V363h43.4V406.4z M80.9,348.5H37.5v-43.4h43.4V348.5z M80.9,290.6
			H37.5v-43.4h43.4V290.6z M80.9,232.8H37.5v-43.4h43.4V232.8z M80.9,174.9H37.5v-43.4h43.4V174.9z M80.9,117H37.5V73.6h43.4V117z
			 M384.7,406.4H95.3V73.6h289.3V406.4z M442.5,406.4h-43.4V363h43.4V406.4z M442.5,348.5h-43.4v-43.4h43.4V348.5z M442.5,290.6
			h-43.4v-43.4h43.4V290.6z M442.5,232.8h-43.4v-43.4h43.4V232.8z M442.5,174.9h-43.4v-43.4h43.4V174.9z M442.5,117h-43.4V73.6h43.4
			V117z"/>
	</g>
</g>
<g>
	<g>
		<path d="M303,236c-0.7-1.2-1.7-2.3-3-3l-112-64c-3.8-2.2-8.7-0.9-10.9,2.9c-0.7,1.2-1.1,2.6-1.1,4v128c0,2.9,1.5,5.5,4,6.9
			c2.5,1.4,5.5,1.4,8,0l112-64C303.8,244.7,305.2,239.8,303,236z M192,290.2V189.8l87.9,50.2L192,290.2z"/>
	</g>
</g>
</svg>
