<?xml version="1.0" encoding="utf-8"?>
<!-- Generator: Adobe Illustrator 24.2.3, SVG Export Plug-In . SVG Version: 6.00 Build 0)  -->
<svg version="1.1" id="Capa_1" xmlns="http://www.w3.org/2000/svg" xmlns:xlink="http://www.w3.org/1999/xlink" x="0px" y="0px"
	 viewBox="0 0 512 512" style="enable-background:new 0 0 512 512;" xml:space="preserve">
<style type="text/css">
	.st0{fill:#17BFBF;}
</style>
<g>
	<rect x="10.2" y="10.7" class="st0" width="491.3" height="491.3"/>
	<path d="M491.5,20.7V492H20.2V20.7H491.5 M511.5,0.7H0.2V512h511.3V0.7L511.5,0.7z"/>
</g>
<g>
	<path d="M421.1,92.4h-5.2c10-16.3,6.3-38.1-9.7-50.1c-17.3-12.8-41.9-8.7-53.9,9.3l-27.2,40.7h-234c-19.2,0-34.9,15.7-34.9,34.9
		v223.1c0,19.2,15.7,34.9,34.9,34.9h135.5l-10.2,43h-22.1c-14.4,0-26.1,11.7-26.1,26.1v5.5H141c-4.8,0-8.6,3.9-8.6,8.6
		c0,4.8,3.9,8.6,8.6,8.6h230.6c4.8,0,8.6-3.9,8.6-8.6c0-4.8-3.9-8.6-8.6-8.6h-27.2v-5.5c0-14.4-11.7-26.1-26.1-26.1h-22.1l-10.2-43
		h135.5c19.2,0,34.9-15.7,34.9-34.9v-49.1v-174C456,108.1,440.3,92.4,421.1,92.4L421.1,92.4z M297.4,244.2
		c-13.5,9.5-38.8-3.4-63,9.5c-5.9-30.6-2.2-59.4,28.5-65.8c4-0.8,8.2-1.2,11.9-1.1c10.4,7.7,20.9,15.5,31.2,23.2
		C310.6,223.2,308.9,236.2,297.4,244.2L297.4,244.2z M306.1,151.7l24.4,18.1l-18.8,22.9c-7.7-5.7-14.4-10.7-22.1-16.4
		C291.2,173.9,304.6,153.9,306.1,151.7z M366.5,61.3c6.5-9.8,19.9-12.1,29.3-5.1s11.1,20.4,3.6,29.5c-13.2,16.1-44.7,54.5-58,70.7
		l-25.8-19.1L366.5,61.3z M326.8,454.4v5.5H185.2v-5.5c0-4.9,4-8.8,8.8-8.8h123.9C322.8,445.5,326.8,449.5,326.8,454.4L326.8,454.4z
		 M278.1,428.3h-44.2l10.2-43h23.7L278.1,428.3z M438.7,350.4c0,9.7-7.9,17.6-17.6,17.6c-13.7,0-314.8,0-330.2,0
		c-9.7,0-17.6-7.9-17.6-17.6V310H98c4.8,0,8.6-3.9,8.6-8.6c0-4.8-3.9-8.6-8.6-8.6H73.3V127.3c0-9.7,7.9-17.6,17.6-17.6h222.5
		c-8.3,12.4-32.4,48.4-40.1,59.9c-16.9,0.2-33.8,6-44.9,19c-15.1,17.6-17.7,45.2-7.9,82.1c1.7,6.3,9.6,8.6,14.3,4
		c22.3-21.3,50.1,1.9,75.1-18.2c15.2-12.3,18.8-31.9,13.1-50.2c7.7-9.4,71.4-87,79.2-96.5h18.9c9.7,0,17.6,7.9,17.6,17.6v165.3H167
		c-4.8,0-8.6,3.9-8.6,8.6c0,4.8,3.9,8.6,8.6,8.6h271.7V350.4z"/>
	<path d="M130.8,292.8c-4.2,0.8-6.9,4.4-6.9,8.5c0,5.4,4.9,9.5,10.3,8.5c4.8-1,7.7-5.6,6.8-10.2C140,294.9,135.4,291.9,130.8,292.8
		L130.8,292.8z"/>
</g>
</svg>
